<svg width="49" height="49" viewBox="0 0 49 49" fill="none" xmlns="http://www.w3.org/2000/svg">
<path d="M16.8438 41.3438C17.6894 41.3438 18.375 40.6582 18.375 39.8125C18.375 38.9668 17.6894 38.2812 16.8438 38.2812C15.9981 38.2812 15.3125 38.9668 15.3125 39.8125C15.3125 40.6582 15.9981 41.3438 16.8438 41.3438Z" stroke="#474444" stroke-width="4" stroke-linecap="round" stroke-linejoin="round"/>
<path d="M38.2812 41.3438C39.1269 41.3438 39.8125 40.6582 39.8125 39.8125C39.8125 38.9668 39.1269 38.2812 38.2812 38.2812C37.4356 38.2812 36.75 38.9668 36.75 39.8125C36.75 40.6582 37.4356 41.3438 38.2812 41.3438Z" stroke="#474444" stroke-width="4" stroke-linecap="round" stroke-linejoin="round"/>
<path d="M4.59375 7.65625H10.7188L15.3125 33.6875H39.8125" stroke="#474444" stroke-width="4" stroke-linecap="round" stroke-linejoin="round"/>
<path d="M15.3125 27.5625H39.1847C39.3618 27.5626 39.5334 27.5014 39.6704 27.3892C39.8074 27.277 39.9012 27.1208 39.936 26.9471L42.6922 13.1659C42.7144 13.0548 42.7117 12.9401 42.6843 12.8301C42.6568 12.7202 42.6053 12.6177 42.5334 12.5301C42.4615 12.4424 42.3711 12.3719 42.2687 12.3234C42.1662 12.275 42.0543 12.2499 41.9409 12.25H12.25" stroke="#474444" stroke-width="4" stroke-linecap="round" stroke-linejoin="round"/>
</svg>
