<svg height="200px" width="200px" version="1.1" id="_x32_" xmlns="http://www.w3.org/2000/svg" xmlns:xlink="http://www.w3.org/1999/xlink" viewBox="0 0 512 512" xml:space="preserve" fill="#474444"><g id="SVGRepo_bgCarrier" stroke-width="0"></g><g id="SVGRepo_tracerCarrier" stroke-linecap="round" stroke-linejoin="round"></g><g id="SVGRepo_iconCarrier"> <style type="text/css"> .st0{fill:<!-- icon666.com - MILLIONS vector ICONS FREE --><svg version="1.1" id="Layer_1" xmlns="http://www.w3.org/2000/svg" xmlns:xlink="http://www.w3.org/1999/xlink" x="0px" y="0px" viewBox="0 0 64 64" enable-background="new 0 0 64 64" xml:space="preserve"><g id="Certificate"><path d="M58.3496017,4.1445498H5.6494002C2.5342,4.1445498,0,6.6786499,0,9.7939501v36.5263023 c0,3.1152992,2.5342,5.6493988,5.6494002,5.6493988h18.1132984c0.5528011,0,1-0.4472008,1-1c0-0.5527-0.4471989-1-1-1H5.6494002 C3.6368001,49.9696503,2,48.3329506,2,46.3202515V9.7939501C2,7.78125,3.6368001,6.1445498,5.6494002,6.1445498h52.7002029 C60.3623009,6.1445498,62,7.78125,62,9.7939501v36.5263023c0,2.0126991-1.6376991,3.6493988-3.6503983,3.6493988 c-0.5527,0-1,0.4473-1,1c0,0.5527992,0.4473,1,1,1C61.464901,51.9696503,64,49.4355507,64,46.3202515V9.7939501 C64,6.6786499,61.464901,4.1445498,58.3496017,4.1445498z" fill="#474444" style="fill: rgb(71, 68, 68);"></path><path d="M22,32.1445503H10c-0.5527,0-1,0.4472008-1,1c0,0.5527,0.4473,1,1,1h12c0.5527992,0,1-0.4473,1-1 C23,32.5917511,22.5527992,32.1445503,22,32.1445503z" fill="#474444" style="fill: rgb(71, 68, 68);"></path><path d="M22,38.6943512H10c-0.5527,0-1,0.447197-1,1c0,0.5527,0.4473,1,1,1h12c0.5527992,0,1-0.4473,1-1 C23,39.1415482,22.5527992,38.6943512,22,38.6943512z" fill="#474444" style="fill: rgb(71, 68, 68);"></path><path d="M51.7373009,42.0009499c-0.0184021-0.0629997-0.0586014-0.1109009-0.0876007-0.167099 C53.7256012,39.5299492,55,36.4897499,55,33.1445503c0-7.1797009-5.8203011-13-13-13s-13,5.8202991-13,13 c0,3.3083992,1.2462006,6.3186989,3.2815018,8.6133995c-0.0209999,0.0455017-0.054203,0.0820999-0.0686035,0.1316986 l-4.2069988,14.4238014c-0.1103992,0.3788986,0.0116997,0.7860985,0.3115005,1.0419998 c0.2998009,0.2558022,0.7217007,0.3096008,1.0771999,0.1416016l4.4160004-2.097702l2.7743988,4.0235023 c0.1884995,0.2733994,0.4980011,0.4325981,0.8232002,0.4325981c0.0567017,0,0.1133003-0.0048981,0.170002-0.014698 c0.384697-0.0664024,0.6952972-0.3496017,0.7958984-0.7265015l3.476799-12.9772987 C41.9011002,46.1375504,41.9496994,46.1445503,42,46.1445503c0.0237999,0,0.0467987-0.0035019,0.0705986-0.0036011 l3.4773026,12.9733009c0.1005974,0.3759995,0.410099,0.6591988,0.7938995,0.7265015 c0.0575981,0.0098,0.1152992,0.014698,0.1718979,0.014698c0.3241997,0,0.6318016-0.1571999,0.8213005-0.4286995 l2.7831993-4.0038986l4.4111023,2.0760994c0.3544998,0.1660995,0.7753983,0.1103973,1.0761986-0.1455002 c0.2988014-0.2558022,0.419899-0.6621017,0.3096008-1.0400009L51.7373009,42.0009499z M42,22.1445503 c6.0654984,0,11,4.9344997,11,11c0,6.0653992-4.9345016,11-11,11c-6.0653992,0-11-4.9346008-11-11 C31,27.0790501,35.9346008,22.1445503,42,22.1445503z M37.0029984,56.5058517l-2.0292969-2.9424019 c-0.2784004-0.4033012-0.8067017-0.5479012-1.2520027-0.3358994l-3.1718979,1.5067978l3.3372993-11.441597 c1.6879005,1.3512001,3.7200012,2.2819977,5.9437981,2.6563988L37.0029984,56.5058517z M50.205101,53.2529488 c-0.4424019-0.2050972-0.9687004-0.0664978-1.2471008,0.3339005l-2.0360985,2.9296989L44.092701,45.9608498 c2.2247009-0.3610001,4.2586975-1.2793007,5.9528999-2.6175995l3.3274994,11.400898L50.205101,53.2529488z" fill="#474444" style="fill: rgb(71, 68, 68);"></path><path d="M23,15.1445503c0-1.1046-0.8953991-2-2-2H11c-1.1044998,0-2,0.8954-2,2v10c0,1.1044998,0.8955002,2,2,2h10 c1.1046009,0,2-0.8955002,2-2V15.1445503z M21,25.1445503H11v-10h10V25.1445503z" fill="#474444" style="fill: rgb(71, 68, 68);"></path><path d="M42,39.1445503c3.3138008,0,6-2.6863022,6-6c0-3.3138008-2.6861992-6-6-6c-3.3137016,0-6,2.6861992-6,6 C36,36.4582481,38.6862984,39.1445503,42,39.1445503z M42,29.1445503c2.2056999,0,4,1.7943001,4,4c0,2.2056007-1.7943001,4-4,4 c-2.2056007,0-4-1.7943993-4-4C38,30.9388504,39.7943993,29.1445503,42,29.1445503z" fill="#474444" style="fill: rgb(71, 68, 68);"></path></g></svg>;} </style> <g> <path class="st0" d="M311.069,130.515c-0.963-5.641-5.851-9.768-11.578-9.768H35.43c-7.61,0-13.772,6.169-13.772,13.765 c0,7.61,6.162,13.772,13.772,13.772h64.263c7.61,0,13.772,6.17,13.772,13.773c0,7.603-6.162,13.772-13.772,13.772H13.772 C6.169,175.829,0,181.998,0,189.601c0,7.603,6.169,13.764,13.772,13.764h117.114c6.72,0,12.172,5.46,12.172,12.18 c0,6.72-5.452,12.172-12.172,12.172H68.665c-7.61,0-13.772,6.17-13.772,13.773c0,7.602,6.162,13.772,13.772,13.772h45.857 c6.726,0,12.179,5.452,12.179,12.172c0,6.719-5.453,12.172-12.179,12.172H51.215c-7.61,0-13.772,6.169-13.772,13.772 c0,7.603,6.162,13.772,13.772,13.772h87.014l5.488,31.042h31.52c-1.854,4.504-2.911,9.421-2.911,14.598 c0,21.245,17.218,38.464,38.464,38.464c21.237,0,38.456-17.219,38.456-38.464c0-5.177-1.057-10.094-2.911-14.598h100.04 L311.069,130.515z M227.342,352.789c0,9.146-7.407,16.553-16.553,16.553c-9.152,0-16.56-7.407-16.56-16.553 c0-6.364,3.627-11.824,8.892-14.598h15.329C223.714,340.965,227.342,346.424,227.342,352.789z"></path> <path class="st0" d="M511.598,314.072l-15.799-77.941l-57.689-88.759H333.074l32.534,190.819h38.42 c-1.846,4.504-2.904,9.421-2.904,14.598c0,21.245,17.219,38.464,38.456,38.464c21.246,0,38.464-17.219,38.464-38.464 c0-5.177-1.057-10.094-2.91-14.598h16.741c6.039,0,11.759-2.708,15.582-7.386C511.273,326.136,512.8,319.988,511.598,314.072z M392.529,182.882h26.314l34.162,52.547h-51.512L392.529,182.882z M456.14,352.789c0,9.146-7.407,16.553-16.56,16.553 c-9.138,0-16.552-7.407-16.552-16.553c0-6.364,3.635-11.824,8.892-14.598h15.329C452.513,340.965,456.14,346.424,456.14,352.789z"></path> </g> </g></svg>