<!-- icon666.com - MILLIONS vector ICONS FREE --><svg id="Capa_1" enable-background="new 0 0 511.995 511.995" viewBox="0 0 511.995 511.995" xmlns="http://www.w3.org/2000/svg"><g><path d="m26.936 318.34h24.891v29.364c0 14.852 12.083 26.935 26.935 26.935h12.957c4.284 0 8.335-1.01 11.935-2.797v4.894c0 14.852 12.083 26.935 26.935 26.935h12.957c14.852 0 26.935-12.083 26.935-26.935v-87.323h171.039v87.323c0 14.852 12.083 26.935 26.935 26.935h12.957c14.852 0 26.935-12.083 26.935-26.935v-4.894c3.6 1.787 7.651 2.797 11.935 2.797h12.957c14.852 0 26.935-12.083 26.935-26.935v-29.364h24.891c14.852 0 26.935-12.083 26.935-26.935v-17.907c0-4.142-3.357-7.5-7.5-7.5s-7.5 3.358-7.5 7.5v17.907c0 6.581-5.354 11.935-11.935 11.935h-24.895v-94.684h24.891c6.581 0 11.935 5.354 11.935 11.935v17.907c0 4.142 3.357 7.5 7.5 7.5s7.5-3.358 7.5-7.5v-17.907c0-14.852-12.083-26.935-26.935-26.935h-24.891v-29.364c0-14.852-12.083-26.935-26.935-26.935h-12.957c-4.284 0-8.335 1.01-11.935 2.797v-4.894c0-14.852-12.083-26.935-26.935-26.935h-12.957c-14.852 0-26.935 12.083-26.935 26.935v87.324c-6.489 0-164.854 0-171.039 0v-32.401c0-4.142-3.357-7.5-7.5-7.5s-7.5 3.358-7.5 7.5v186.551c0 6.581-5.354 11.935-11.935 11.935h-12.957c-6.581 0-11.935-5.354-11.935-11.935v-29.031-183.411-29.031c0-6.581 5.354-11.935 11.935-11.935h12.957c6.581 0 11.935 5.354 11.935 11.935v19.922c0 4.142 3.357 7.5 7.5 7.5s7.5-3.358 7.5-7.5v-19.922c0-14.852-12.083-26.935-26.935-26.935h-12.957c-14.852 0-26.935 12.083-26.935 26.935v4.894c-3.6-1.787-7.651-2.797-11.935-2.797h-12.954c-14.852 0-26.935 12.083-26.935 26.935v29.363h-24.89c-14.853 0-26.936 12.083-26.936 26.935v70.814c0 14.852 12.083 26.935 26.936 26.935zm381.408-154.048c0-6.581 5.354-11.935 11.935-11.935h12.957c6.581 0 11.935 5.354 11.935 11.935v183.411c0 6.581-5.354 11.935-11.935 11.935h-12.957c-6.581 0-11.935-5.354-11.935-11.935zm-51.826-29.031c0-6.581 5.354-11.935 11.935-11.935h12.957c6.581 0 11.935 5.354 11.935 11.935v241.473c0 6.581-5.354 11.935-11.935 11.935h-12.957c-6.581 0-11.935-5.354-11.935-11.935 0-8.547 0-229.049 0-241.473zm-46.51 102.324h31.51v36.826h-31.51zm-93.02 0h78.02v36.826h-78.02zm-46.509 0h31.51v36.826h-31.51zm-103.653-73.293c0-6.581 5.354-11.935 11.935-11.935h12.957c6.581 0 11.935 5.354 11.935 11.935v183.411c0 6.581-5.354 11.935-11.935 11.935h-12.957c-6.581 0-11.935-5.354-11.935-11.935 0-6.865 0-176.53 0-183.411zm-51.826 56.299c0-6.581 5.354-11.935 11.936-11.935h24.891v94.684h-24.891c-6.581 0-11.936-5.354-11.936-11.935z" fill="#000000" style="fill: rgb(71, 68, 68);"></path></g></svg>