<!--?xml version="1.0" encoding="utf-8"?-->
<!-- Svg Vector Icons : http://www.onlinewebfonts.com/icon -->

<svg version="1.1" xmlns="http://www.w3.org/2000/svg" xmlns:xlink="http://www.w3.org/1999/xlink" x="0px" y="0px" viewBox="0 0 256 256" enable-background="new 0 0 256 256" xml:space="preserve">
<metadata> Svg Vector Icons : http://www.onlinewebfonts.com/icon </metadata>
<g><g><g><path fill="#474444" data-title="Layer 0" xs="0" d="M26.7,10.3c-8.2,1.2-15.1,8.3-16.3,16.7c-0.6,4.1-0.6,31.1,0,34.1c0.5,2.4,0.6,2.5,24.7,26.7L59.3,112v43.3c0,47.3-0.1,45,2.7,48c2.8,3,7.6,4,10.8,2.4c2-1,43.1-42,44.2-44.1c0.8-1.6,0.9-2.9,0.9-25.4v-23.7l23.7-23.7c18-18,23.9-24.3,24.6-25.8c0.9-1.9,1-3,1-18.7c0-18.1-0.2-19.8-2.6-24.3c-1.6-2.8-5.4-6.4-8.6-7.9c-1.3-0.6-3.7-1.4-5.4-1.7C147.1,9.8,30.5,9.8,26.7,10.3z M147.8,42.3v13l-24,24c-22.2,22.1-24.1,24.2-24.7,26.2c-0.6,1.9-0.7,6.3-0.7,25.1v22.9l-9.9,9.9l-9.9,9.9v-33.4v-33.4l-1.1-2.3c-0.9-1.8-6.1-7.3-24.7-25.8L29.3,54.8V42.1V29.3h59.2h59.2V42.3z"/><path fill="#474444" data-title="Layer 1" xs="1" d="M134,109.3c-2.1,0.9-3.5,2.3-4.7,4.6l-1,1.8l-0.1,59.9c-0.1,44.3,0,60.6,0.4,62.4c0.7,3.4,3.4,6.2,6.6,7.2c3.5,1.1,100.4,1.1,103.9,0c3.2-1,5.9-3.8,6.6-7.2c0.4-1.8,0.5-18.2,0.4-62.4l-0.1-59.9l-1-1.8c-1.2-2.3-2.7-3.7-4.8-4.6c-1.5-0.6-7.7-0.7-53-0.7C142.1,108.6,135.4,108.7,134,109.3z M226.6,177.1l-0.1,49.2l-39.5,0.1l-39.6,0.1v-49.3v-49.3H187h39.7L226.6,177.1z"/><path fill="#474444" data-title="Layer 2" xs="2" d="M177.4,147.8v9.7H197h19.6v-9.7v-9.7H197h-19.6V147.8L177.4,147.8z"/><path fill="#474444" data-title="Layer 3" xs="3" d="M157.5,177.3v9.7H187h29.5v-9.7v-9.7H187h-29.5V177.3z"/><path fill="#474444" data-title="Layer 4" xs="4" d="M157.5,206.8v9.7H187h29.5v-9.7v-9.7H187h-29.5V206.8z"/></g></g></g>
</svg>