<svg width="33" height="33" viewBox="0 0 33 33" fill="none" xmlns="http://www.w3.org/2000/svg">
<path d="M14.9531 16.5C14.9531 16.9103 15.116 17.3037 15.4061 17.5938C15.6962 17.8839 16.0897 18.0469 16.4999 18.0469C16.9102 18.0469 17.3036 17.8839 17.5937 17.5938C17.8838 17.3037 18.0468 16.9103 18.0468 16.5C18.0468 16.0897 17.8838 15.6963 17.5937 15.4062C17.3036 15.1161 16.9102 14.9531 16.4999 14.9531C16.0897 14.9531 15.6962 15.1161 15.4061 15.4062C15.116 15.6963 14.9531 16.0897 14.9531 16.5ZM21.3984 16.5C21.3984 16.9103 21.5614 17.3037 21.8514 17.5938C22.1415 17.8839 22.535 18.0469 22.9453 18.0469C23.3555 18.0469 23.749 17.8839 24.0391 17.5938C24.3292 17.3037 24.4921 16.9103 24.4921 16.5C24.4921 16.0897 24.3292 15.6963 24.0391 15.4062C23.749 15.1161 23.3555 14.9531 22.9453 14.9531C22.535 14.9531 22.1415 15.1161 21.8514 15.4062C21.5614 15.6963 21.3984 16.0897 21.3984 16.5ZM8.50775 16.5C8.50775 16.9103 8.67072 17.3037 8.96082 17.5938C9.25092 17.8839 9.64437 18.0469 10.0546 18.0469C10.4649 18.0469 10.8583 17.8839 11.1484 17.5938C11.4385 17.3037 11.6015 16.9103 11.6015 16.5C11.6015 16.0897 11.4385 15.6963 11.1484 15.4062C10.8583 15.1161 10.4649 14.9531 10.0546 14.9531C9.64437 14.9531 9.25092 15.1161 8.96082 15.4062C8.67072 15.6963 8.50775 16.0897 8.50775 16.5ZM29.816 10.9055C29.0876 9.1749 28.0435 7.62158 26.7125 6.2874C25.3909 4.96098 23.8219 3.90661 22.0945 3.18398C20.322 2.43955 18.44 2.0625 16.4999 2.0625H16.4355C14.4826 2.07217 12.5909 2.45889 10.812 3.21943C9.09931 3.94947 7.54505 5.00571 6.23578 6.3293C4.91771 7.66025 3.88324 9.20713 3.16781 10.9313C2.4266 12.7166 2.05277 14.6147 2.06244 16.5677C2.07337 18.8057 2.60285 21.0108 3.60931 23.0098V27.9082C3.60931 28.3014 3.7655 28.6784 4.04351 28.9564C4.32151 29.2344 4.69857 29.3906 5.09174 29.3906H9.9934C11.9924 30.3971 14.1974 30.9266 16.4355 30.9375H16.5032C18.4335 30.9375 20.3059 30.5637 22.0687 29.8321C23.7874 29.1181 25.3505 28.0761 26.6706 26.7642C28.0016 25.4461 29.049 23.9057 29.7805 22.188C30.5411 20.4091 30.9278 18.5174 30.9374 16.5645C30.9471 14.6019 30.5668 12.6973 29.816 10.9055ZM24.9465 25.0207C22.6874 27.2572 19.6904 28.4883 16.4999 28.4883H16.4452C14.5019 28.4786 12.5715 27.9952 10.8667 27.0864L10.596 26.9414H6.05853V22.4039L5.91351 22.1332C5.00472 20.4284 4.52133 18.498 4.51166 16.5548C4.49877 13.3418 5.7266 10.3254 7.97924 8.05342C10.2287 5.78145 13.2354 4.52461 16.4484 4.51172H16.5032C18.1145 4.51172 19.6775 4.82432 21.1502 5.44307C22.5875 6.0457 23.8766 6.9126 24.9852 8.02119C26.0906 9.12656 26.9607 10.4188 27.5633 11.8562C28.1885 13.345 28.5011 14.9241 28.4947 16.5548C28.4753 19.7646 27.2153 22.7713 24.9465 25.0207Z" fill="#474444"/>
</svg>
