<svg width="26" height="26" viewBox="0 0 26 26" fill="none" xmlns="http://www.w3.org/2000/svg">
<path d="M24.3587 10.0773C23.9212 9.62 23.4685 9.14875 23.2979 8.73438C23.14 8.35482 23.1307 7.72571 23.1214 7.11634C23.104 5.98348 23.0854 4.69973 22.1929 3.80714C21.3003 2.91455 20.0165 2.89598 18.8837 2.87857C18.2743 2.86929 17.6452 2.86 17.2656 2.70214C16.8524 2.53152 16.38 2.07884 15.9227 1.64125C15.1218 0.871696 14.2118 0 13 0C11.7882 0 10.8794 0.871696 10.0773 1.64125C9.62 2.07884 9.14875 2.53152 8.73438 2.70214C8.35714 2.86 7.72571 2.86929 7.11634 2.87857C5.98348 2.89598 4.69973 2.91455 3.80714 3.80714C2.91455 4.69973 2.90179 5.98348 2.87857 7.11634C2.86929 7.72571 2.86 8.35482 2.70214 8.73438C2.53152 9.14759 2.07884 9.62 1.64125 10.0773C0.871696 10.8782 0 11.7882 0 13C0 14.2118 0.871696 15.1206 1.64125 15.9227C2.07884 16.38 2.53152 16.8512 2.70214 17.2656C2.86 17.6452 2.86929 18.2743 2.87857 18.8837C2.89598 20.0165 2.91455 21.3003 3.80714 22.1929C4.69973 23.0854 5.98348 23.104 7.11634 23.1214C7.72571 23.1307 8.35482 23.14 8.73438 23.2979C9.14759 23.4685 9.62 23.9212 10.0773 24.3587C10.8782 25.1283 11.7882 26 13 26C14.2118 26 15.1206 25.1283 15.9227 24.3587C16.38 23.9212 16.8512 23.4685 17.2656 23.2979C17.6452 23.14 18.2743 23.1307 18.8837 23.1214C20.0165 23.104 21.3003 23.0854 22.1929 22.1929C23.0854 21.3003 23.104 20.0165 23.1214 18.8837C23.1307 18.2743 23.14 17.6452 23.2979 17.2656C23.4685 16.8524 23.9212 16.38 24.3587 15.9227C25.1283 15.1218 26 14.2118 26 13C26 11.7882 25.1283 10.8794 24.3587 10.0773ZM23.0181 14.6378C22.4621 15.2181 21.8864 15.8182 21.5812 16.5553C21.2887 17.2633 21.2759 18.0723 21.2643 18.8558C21.2527 19.6683 21.2399 20.5191 20.8789 20.8789C20.5179 21.2388 19.6729 21.2527 18.8558 21.2643C18.0723 21.2759 17.2633 21.2887 16.5553 21.5812C15.8182 21.8864 15.2181 22.4621 14.6378 23.0181C14.0574 23.5741 13.4643 24.1429 13 24.1429C12.5357 24.1429 11.9379 23.5718 11.3622 23.0181C10.7865 22.4645 10.1818 21.8864 9.44473 21.5812C8.7367 21.2887 7.92768 21.2759 7.1442 21.2643C6.3317 21.2527 5.48089 21.2399 5.12107 20.8789C4.76125 20.5179 4.74732 19.6729 4.73571 18.8558C4.72411 18.0723 4.71134 17.2633 4.41884 16.5553C4.11357 15.8182 3.53786 15.2181 2.98187 14.6378C2.42589 14.0574 1.85714 13.4643 1.85714 13C1.85714 12.5357 2.42821 11.9379 2.98187 11.3622C3.53554 10.7865 4.11357 10.1818 4.41884 9.44473C4.71134 8.7367 4.72411 7.92768 4.73571 7.1442C4.74732 6.3317 4.76009 5.48089 5.12107 5.12107C5.48205 4.76125 6.32705 4.74732 7.1442 4.73571C7.92768 4.72411 8.7367 4.71134 9.44473 4.41884C10.1818 4.11357 10.7819 3.53786 11.3622 2.98187C11.9426 2.42589 12.5357 1.85714 13 1.85714C13.4643 1.85714 14.0621 2.42821 14.6378 2.98187C15.2135 3.53554 15.8182 4.11357 16.5553 4.41884C17.2633 4.71134 18.0723 4.72411 18.8558 4.73571C19.6683 4.74732 20.5191 4.76009 20.8789 5.12107C21.2388 5.48205 21.2527 6.32705 21.2643 7.1442C21.2759 7.92768 21.2887 8.7367 21.5812 9.44473C21.8864 10.1818 22.4621 10.7819 23.0181 11.3622C23.5741 11.9426 24.1429 12.5357 24.1429 13C24.1429 13.4643 23.5718 14.0621 23.0181 14.6378ZM18.2998 9.55732C18.3862 9.64356 18.4546 9.74597 18.5014 9.8587C18.5481 9.97143 18.5722 10.0923 18.5722 10.2143C18.5722 10.3363 18.5481 10.4571 18.5014 10.5699C18.4546 10.6826 18.3862 10.785 18.2998 10.8713L11.7998 17.3713C11.7136 17.4576 11.6112 17.5261 11.4984 17.5728C11.3857 17.6195 11.2649 17.6436 11.1429 17.6436C11.0208 17.6436 10.9 17.6195 10.7873 17.5728C10.6745 17.5261 10.5721 17.4576 10.4859 17.3713L7.70018 14.5855C7.52594 14.4113 7.42805 14.175 7.42805 13.9286C7.42805 13.6822 7.52594 13.4458 7.70018 13.2716C7.87442 13.0974 8.11073 12.9995 8.35714 12.9995C8.60355 12.9995 8.83987 13.0974 9.01411 13.2716L11.1429 15.4015L16.9859 9.55732C17.0721 9.47099 17.1745 9.4025 17.2873 9.35577C17.4 9.30904 17.5208 9.28498 17.6429 9.28498C17.7649 9.28498 17.8857 9.30904 17.9984 9.35577C18.1112 9.4025 18.2136 9.47099 18.2998 9.55732Z" fill="#E0AB69"/>
</svg>
