<!DOCTYPE svg PUBLIC "-//W3C//DTD SVG 1.1//EN" "http://www.w3.org/Graphics/SVG/1.1/DTD/svg11.dtd">
<!-- Uploaded to: SVG Repo, www.svgrepo.com, Transformed by: SVG Repo Mixer Tools -->
<svg fill="#747272" width="800px" height="800px" viewBox="0 0 256 256" id="Flat" xmlns="http://www.w3.org/2000/svg">
<g id="SVGRepo_bgCarrier" stroke-width="0"/>
<g id="SVGRepo_tracerCarrier" stroke-linecap="round" stroke-linejoin="round"/>
<g id="SVGRepo_iconCarrier"> <path d="M191.99414,180H46c-19.4165,0-35.21289-16.14941-35.21289-36S26.5835,108,46,108H190a20,20,0,0,1,0,40H78a4,4,0,0,1,0-8H190a12,12,0,0,0,0-24H46c-15.00537,0-27.21289,12.56055-27.21289,28S30.99463,172,46,172H191.99414a44,44,0,1,0,0-88h-112a4,4,0,0,1,0-8h112a52,52,0,1,1,0,104Z"/> </g>
</svg>