<svg width="29" height="29" viewBox="0 0 29 29" fill="none" xmlns="http://www.w3.org/2000/svg">
<path d="M23.6833 25.375L16.0708 17.7625C15.4667 18.2458 14.7719 18.6285 13.9865 18.9104C13.201 19.1924 12.3653 19.3333 11.4792 19.3333C9.28403 19.3333 7.42642 18.5729 5.90633 17.052C4.38625 15.5311 3.62581 13.6735 3.625 11.4792C3.6242 9.28483 4.38464 7.42722 5.90633 5.90633C7.42803 4.38544 9.28564 3.625 11.4792 3.625C13.6727 3.625 15.5307 4.38544 17.0532 5.90633C18.5757 7.42722 19.3358 9.28483 19.3333 11.4792C19.3333 12.3653 19.1924 13.201 18.9104 13.9865C18.6285 14.7719 18.2458 15.4667 17.7625 16.0708L25.375 23.6833L23.6833 25.375ZM11.4792 16.9167C12.9896 16.9167 14.2736 16.3882 15.3313 15.3313C16.389 14.2744 16.9175 12.9904 16.9167 11.4792C16.9159 9.96794 16.3874 8.68429 15.3313 7.62821C14.2753 6.57213 12.9912 6.04328 11.4792 6.04167C9.96714 6.04006 8.68349 6.5689 7.62821 7.62821C6.57293 8.68751 6.04408 9.97117 6.04167 11.4792C6.03925 12.9872 6.5681 14.2712 7.62821 15.3313C8.68832 16.3914 9.97197 16.9199 11.4792 16.9167Z" fill="#474444"/>
</svg>
