<svg width="30" height="30" viewBox="0 0 30 30" fill="none" xmlns="http://www.w3.org/2000/svg">
<g clip-path="url(#clip0_19_39)">
<path d="M15.0117 30.0234C23.3024 30.0234 30.0234 23.3024 30.0234 15.0117C30.0234 6.72096 23.3024 0 15.0117 0C6.72096 0 0 6.72096 0 15.0117C0 23.3024 6.72096 30.0234 15.0117 30.0234Z" fill="url(#paint0_linear_19_39)"/>
<path fill-rule="evenodd" clip-rule="evenodd" d="M6.78098 14.848C11.1535 12.9306 14.0764 11.6913 15.5495 11.0834C19.7116 9.35305 20.5768 9.04908 21.138 9.0257C21.2549 9.0257 21.5355 9.04908 21.7225 9.18937C21.8628 9.30629 21.9096 9.46997 21.933 9.58688C21.9564 9.70379 21.9797 9.961 21.9564 10.1714C21.7225 12.5331 20.7638 18.3086 20.2494 20.9509C20.039 22.0732 19.6181 22.4474 19.2206 22.4941C18.3554 22.5643 17.6773 21.9096 16.8355 21.3718C15.5261 20.5066 14.7779 19.9688 13.4918 19.127C12.0187 18.1449 12.9774 17.6071 13.8192 16.742C14.0296 16.5082 17.8878 13.0241 17.9579 12.6968C17.9579 12.65 17.9813 12.5097 17.8878 12.4396C17.7942 12.3694 17.6773 12.3928 17.5838 12.4162C17.4435 12.4396 15.339 13.8425 11.2471 16.6017C10.6391 17.0226 10.1013 17.2096 9.61029 17.2096C9.07249 17.2096 8.04365 16.9057 7.27202 16.6485C6.33671 16.3445 5.58847 16.1808 5.65861 15.6664C5.70538 15.4092 6.0795 15.1286 6.78098 14.848Z" fill="white"/>
</g>
<defs>
<linearGradient id="paint0_linear_19_39" x1="0" y1="15.0008" x2="30.0017" y2="15.0008" gradientUnits="userSpaceOnUse">
<stop stop-color="#2AABEE"/>
<stop offset="1" stop-color="#229ED9"/>
</linearGradient>
<clipPath id="clip0_19_39">
<rect width="30" height="30" fill="white"/>
</clipPath>
</defs>
</svg>
