<svg width="38" height="39" viewBox="0 0 38 39" fill="none" xmlns="http://www.w3.org/2000/svg">
<g clip-path="url(#clip0_19_44)" filter="url(#filter0_d_19_44)">
<path fill-rule="evenodd" clip-rule="evenodd" d="M29.6288 4.37877C26.8091 1.55648 23.0588 0.00143191 19.063 0C10.8292 0 4.12821 6.69775 4.12534 14.9305C4.12391 17.5623 4.81221 20.1312 6.11933 22.395L4 30.133L11.9186 28.0568C14.1003 29.2467 16.5569 29.8731 19.0566 29.8739H19.063C27.2953 29.8739 33.9972 23.1754 34 14.9427C34.0014 10.9527 32.4493 7.20178 29.6288 4.37949V4.37877ZM19.063 27.3523H19.058C16.8305 27.3516 14.6453 26.753 12.7388 25.6225L12.2854 25.3534L7.58617 26.5855L8.84028 22.0055L8.54519 21.5359C7.30253 19.5599 6.64575 17.2759 6.64718 14.9312C6.65005 8.08885 12.2194 2.52159 19.0681 2.52159C22.3842 2.52302 25.5012 3.81532 27.8454 6.1615C30.1897 8.50697 31.4796 11.6257 31.4782 14.9412C31.4753 21.7844 25.9059 27.3516 19.063 27.3516V27.3523ZM25.8729 18.0578C25.4998 17.8709 23.6648 16.9688 23.3224 16.8443C22.9801 16.7196 22.7316 16.6574 22.483 17.0311C22.2345 17.4049 21.519 18.2454 21.3013 18.4938C21.0835 18.7429 20.8657 18.7738 20.4926 18.5868C20.1195 18.4 18.9169 18.0062 17.4909 16.7354C16.3815 15.7459 15.6323 14.5246 15.4146 14.1508C15.1968 13.7771 15.3917 13.5752 15.5778 13.3898C15.7454 13.2222 15.951 12.9538 16.1379 12.7361C16.3249 12.5184 16.3865 12.3624 16.5111 12.1139C16.6357 11.8648 16.5734 11.6472 16.4803 11.4602C16.3872 11.2734 15.6409 9.43694 15.3293 8.69023C15.0263 7.96284 14.7184 8.06164 14.4899 8.04947C14.2722 8.03873 14.0237 8.03658 13.7744 8.03658C13.5252 8.03658 13.1212 8.12966 12.7788 8.50339C12.4365 8.87708 11.4724 9.7799 11.4724 11.6156C11.4724 13.4513 12.8097 15.2262 12.9966 15.4754C13.1835 15.7245 15.6287 19.4926 19.3724 21.1092C20.2628 21.4936 20.9582 21.7235 21.5003 21.8953C22.3943 22.1795 23.2078 22.1395 23.851 22.0435C24.568 21.9361 26.0592 21.1407 26.37 20.2694C26.6808 19.398 26.6808 18.6506 26.5878 18.4952C26.4947 18.3398 26.2454 18.246 25.8723 18.0592L25.8729 18.0578Z" fill="#25D366"/>
</g>
<defs>
<filter id="filter0_d_19_44" x="0" y="0" width="38" height="38.155" filterUnits="userSpaceOnUse" color-interpolation-filters="sRGB">
<feFlood flood-opacity="0" result="BackgroundImageFix"/>
<feColorMatrix in="SourceAlpha" type="matrix" values="0 0 0 0 0 0 0 0 0 0 0 0 0 0 0 0 0 0 127 0" result="hardAlpha"/>
<feOffset dy="4"/>
<feGaussianBlur stdDeviation="2"/>
<feComposite in2="hardAlpha" operator="out"/>
<feColorMatrix type="matrix" values="0 0 0 0 0 0 0 0 0 0 0 0 0 0 0 0 0 0 0.25 0"/>
<feBlend mode="normal" in2="BackgroundImageFix" result="effect1_dropShadow_19_44"/>
<feBlend mode="normal" in="SourceGraphic" in2="effect1_dropShadow_19_44" result="shape"/>
</filter>
<clipPath id="clip0_19_44">
<rect width="30" height="30.155" fill="white" transform="translate(4)"/>
</clipPath>
</defs>
</svg>
